<svg xmlns="http://www.w3.org/2000/svg" xmlns:xlink="http://www.w3.org/1999/xlink" width="642.997" height="699.639" viewBox="0 0 642.997 699.639"><path fill="#ff3974" d="m526.36926,329.63874c19.90002,12.82996,38.54004,30.01001,56,51.20001v32.39996c-8.52002-2.89996-41.03998-14.91998-53.88-33.92999-14.83997-21.96997-17.47998-55.32001-5.12-63.66998,3.21997-2.17004,7.13-2.44,11.41998-1.25,13.52997,9.72998,26.47003,21.52997,38.83002,35.27997,4.38,6.73004,7.09009,15.29999,8.75,23.96002v.40997c-15.98999-22.25995-34.79004-36.69995-56-44.39996Z"/><path fill="#ff3974" d="m525.36926,130.63872c19.90002,12.82996,38.54004,30.01001,56,51.20001v7.39996c-1.66992-.57001-4.25-1.47998-7.42993-2.72998-14.28003-16.92999-30.56006-28.33002-48.57007-34.87,12.59998,8.12,24.69995,17.98999,36.31006,29.51996-12.28003-5.90997-26.64008-14.66998-34.19006-25.84998-.79999-1.17999-1.56-2.37-2.27997-3.57001-12.70001-21.08002-13.54004-44.20001-1.84003-52.09998,12.35999-8.35004,34.03003,3.47998,48.87,25.44,8.57996,12.70996,10.98999,32.42999,11.47998,46.77997-.78992,1.04004-1.56995,2.10004-2.34998,3.17999-15.98999-22.25995-34.79004-36.69995-56-44.39996Z"/><path fill="#ff3974" d="m638.64929,248.8442v.01001c-1.42004,3.92999-3.19995,7.89995-5.32007,11.81001-3.1499,5.82001-7.98999,11.21997-13.46997,16.04999-5.87,5.17999-12.48999,9.70001-18.58008,13.37-8.5,5.13-15.96997,8.60999-18.90991,9.92999v-3.14996c16.89001-20.10004,34.84998-36.48004,54-48.82001-20.34009,7.38-38.44995,20.97998-54,41.70996v-13.88995c16.89001-20.10004,34.84998-36.48004,54-48.82001-20.34009,7.38-38.44995,20.97998-54,41.70996v-13.88995c16.66992-19.83002,34.37-36.04004,53.23999-48.32001,8.84009,7.10999,9.60999,24.26001,3.04004,42.29999v-.00002Z"/><circle cx="143.685" cy="245.545" r="143.685" fill="#ff6884"/><path id="uuid-9ac3c440-2c29-483e-b5ea-f157a67fda2d-279" fill="#fcb4b4" d="m593.86542,475.91107c12.08508,10.18033,16.6283,24.66791,10.14819,32.35791-6.4801,7.68994-21.52747,5.66974-33.61548-4.5159-4.88446-4.0025-8.73944-9.11652-11.24231-14.91425l-50.66037-43.78113,21.05191-23.33551,47.70709,45.63794c6.14044,1.48282,11.83636,4.41492,16.6109,8.55093h.00006Z"/><polygon fill="#2f2e41" points="552.958 443.519 491.027 363.994 432.369 256.639 430.848 405.529 518.774 477.745 552.958 443.519"/><polygon fill="#fcb4b4" points="283.556 224.624 297.743 160.118 345.163 162.399 357.336 209.194 283.556 224.624"/><polygon points="283.556 224.624 297.743 160.118 345.163 162.399 357.336 209.194 283.556 224.624" isolation="isolate" opacity=".1"/><circle cx="320.28" cy="124.338" r="53.088" fill="#fcb4b4"/><path fill="#2f2e41" d="m296.53302,144.83966v-.00003s-5.35571-.05193-16.49579-2.1235c-11.14008-2.07162,8.20172,23.95969,8.20172,23.95969-52.42401-21.89015-35.64839-77.41381-35.64839-77.41381-53.20448-10.17499-30.91603-57.47251-30.91603-57.47251,0,0,17.53793-33.84457,71.45114-31.6909,53.91318,2.15367,28.44357,55.32713,28.44357,55.32713,35.12576.06654,39.07767,31.72302,39.07767,31.72302,0,0-12.66254,1.58075-35.67487,7.42121-23.01227,5.84041-28.43887,50.26965-28.43887,50.26965l-.00006.00003-.00003.00003h-.00006Z"/><path fill="#ffb6b6" d="m294.42831,204.30803l-2.39764-4.6693s-42.66142,4.94489-49.66142,11.47244-23,35.52756-23,35.52756l35,30.00003,40.05907-72.33072v-.00002Z"/><path fill="#ffb6b6" d="m347.36926,203.17417s32-8.53543,50,9.46457,39,51.00003,39,51.00003l-1,26-50-24.10236-38-62.3622v-.00005Z"/><path fill="#2f2e41" d="m355.52676,199.63872s41.84253-15,68.84253,17,35,133.00002,35,133.00002c0,0,60.99997,186.99994,46,188.99994s-106.53979,7.52759-106.53979,7.52759l-31.46021-203.52756-14-143h2.15747v.00002Z"/><path fill="#fcb4b4" d="m259.36926,379.63874l-10,36,136,10s-5-30.09448,0-41.04724l-126-4.95276Z"/><polygon fill="#fcb4b4" points="336.369 613.639 342.369 699.639 417.889 697.639 415.369 610.639 336.369 613.639"/><polygon fill="#fcb4b4" points="218.545 605.132 196.369 698.639 275.428 698.104 295.57 621.673 218.545 605.132"/><path fill="#ff3974" d="m353.36926,199.63872h-61.33859l-49.66142,66.00002,11,135s25.00002-7,60.00002-7h75s-11-35,3-49,4-79,4-79l-42-66v-.00002Z"/><path fill="#2f2e41" d="m244.36926,404.63874l-56,202.99994s82.46021,33.13385,132.2301,23.56696,117.7699-12.56696,117.7699-12.56696l-48-206-146-8v.00006Z"/><path id="uuid-73c6c48b-3ad6-4bf4-ae9b-2aead64e96c3-280" fill="#fcb4b4" d="m373.86539,478.91107c12.08511,10.18033,16.6283,24.66791,10.14822,32.35791-6.4801,7.68994-21.52747,5.66974-33.61551-4.5159-4.88449-4.0025-8.73944-9.11652-11.24231-14.91425l-50.66037-43.78113,21.05194-23.33551,47.70709,45.63794c6.14044,1.48282,11.83636,4.41492,16.61093,8.55093Z"/><polygon fill="#2f2e41" points="342.958 443.519 281.027 363.994 222.369 256.639 220.848 405.529 308.774 477.745 342.958 443.519"/><path fill="#2f2e41" d="m296.21179,199.63872s-41.84253-15-68.84253,17-35,133.00002-35,133.00002c0,0-61,186.99994-46,188.99994s106.53979,7.52759,106.53979,7.52759l31.46021-203.52756,14-143h-2.15747v.00002Z"/><rect width="2" height="348" x="581.369" y="161.639" fill="#3f3d56"/><path fill="#ff3974" d="m27.36927,518.63874c19.90002,12.82996,38.54004,30.01001,56,51.20001v32.39996c-8.52002-2.89996-41.03998-14.91998-53.88-33.92999-14.83997-21.96997-17.47998-55.32001-5.12-63.66998,3.21997-2.17004,7.13-2.44,11.41998-1.25,13.52997,9.72998,26.47003,21.52997,38.83002,35.27997,4.38,6.73004,7.09009,15.29999,8.75,23.96002v.40997c-15.98999-22.25995-34.79004-36.69995-56-44.39996Z"/><path fill="#ff3974" d="m26.36927,319.63874c19.90002,12.82996,38.54004,30.01001,56,51.20001v7.39996c-1.66992-.57001-4.25-1.47998-7.42993-2.72998-14.28003-16.92999-30.56006-28.33002-48.57007-34.87,12.59998,8.12,24.69995,17.98999,36.31006,29.51996-12.28003-5.90997-26.64008-14.66998-34.19006-25.84998-.79999-1.17999-1.56-2.37-2.27997-3.57001-12.70001-21.08002-13.54004-44.20001-1.84003-52.09998,12.35999-8.35004,34.03003,3.47998,48.87,25.44,8.57996,12.70996,10.98999,32.42999,11.47998,46.77997-.78992,1.04004-1.56995,2.10004-2.34998,3.17999-15.98999-22.25995-34.79004-36.69995-55.99999-44.39996Z"/><path fill="#ff3974" d="m139.64931,437.84421v.01001c-1.42004,3.92999-3.19995,7.89996-5.32007,11.81-3.1499,5.82001-7.98999,11.21997-13.46997,16.04999-5.87,5.17999-12.48999,9.70001-18.58008,13.37-8.5,5.13-15.96997,8.60999-18.90991,9.92999v-3.14996c16.89001-20.10004,34.84998-36.48004,54-48.82001-20.34009,7.38-38.44995,20.97998-54,41.70996v-13.88995c16.89001-20.10004,34.84998-36.48004,54-48.82001-20.34009,7.38-38.44995,20.97998-54,41.70996v-13.88995c16.66992-19.83002,34.37-36.04004,53.23999-48.32001,8.84009,7.10999,9.60999,24.26001,3.04004,42.29999Z"/><rect width="2" height="348" x="82.369" y="350.639" fill="#3f3d56"/></svg>